<?xml version="1.0" encoding="UTF-8"?><svg id="a" xmlns="http://www.w3.org/2000/svg" viewBox="0 0 1920 1080"><defs><style>.b{fill:#1e64ff;stroke-width:0px;}</style></defs><path class="b" d="M98.33,366.19c-25.22,0-45.66,20.45-45.66,45.6v267.07c0,25.24,20.45,45.63,45.66,45.63s45.66-20.39,45.66-45.63v-267.07c0-25.15-20.45-45.6-45.66-45.6Z"/><path class="b" d="M98.33,220.78c-27.85,0-50.43,22.6-50.43,50.47s22.58,50.46,50.43,50.46,50.45-22.64,50.45-50.46-22.61-50.47-50.45-50.47Z"/><path class="b" d="M915.65,678.86c0-25.19-20.47-45.69-45.71-45.69h-126.12l161.18-192.03c16.17-19.29,13.65-48.14-5.64-64.27-9-7.58-20.01-11.06-30.92-10.69-.52-.06-201.68,0-201.68,0-25.24,0-45.66,20.45-45.66,45.6s20.41,45.74,45.66,45.74h105.35l-161.15,191.97c-16.22,19.36-13.68,48.13,5.62,64.31,8.55,7.23,18.99,10.68,29.36,10.68h224.02c25.24,0,45.71-20.39,45.71-45.63Z"/><path class="b" d="M1318.09,451.45c25.03,0,48.46,9.7,66.16,27.41,17.81,17.79,46.73,17.79,64.6,0,17.76-17.84,17.76-46.76,0-64.6-34.94-34.94-81.37-54.17-130.76-54.17s-95.74,19.23-130.65,54.17c-34.92,34.94-54.16,81.29-54.16,130.69s19.24,95.81,54.16,130.64c34.91,34.95,81.32,54.21,130.65,54.21s95.82-19.26,130.76-54.21c17.76-17.76,17.76-46.69,0-64.52-17.87-17.86-46.79-17.86-64.6,0-17.7,17.6-41.13,27.44-66.16,27.44s-48.43-9.84-66.08-27.44c-17.67-17.68-27.38-41.16-27.38-66.12s9.71-48.5,27.38-66.1c17.65-17.71,41.11-27.41,66.08-27.41Z"/><path class="b" d="M1687.26,360.09c-101.87,0-184.78,82.92-184.78,184.86s82.9,184.85,184.78,184.85,184.84-82.93,184.84-184.85-82.91-184.86-184.84-184.86ZM1687.26,638.52c-51.53,0-93.43-42.02-93.43-93.56s41.9-93.5,93.43-93.5,93.54,41.93,93.54,93.5-41.96,93.56-93.54,93.56Z"/><path class="b" d="M1027.8,366.19c-25.19,0-45.6,20.45-45.6,45.6v267.07c0,25.24,20.42,45.63,45.6,45.63s45.66-20.39,45.66-45.63v-267.07c0-25.15-20.39-45.6-45.66-45.6Z"/><path class="b" d="M1027.8,220.78c-27.87,0-50.46,22.6-50.46,50.47s22.58,50.46,50.46,50.46,50.49-22.64,50.49-50.46-22.59-50.47-50.49-50.47Z"/><path class="b" d="M541.74,371.33c-22.39-11.64-49.93-2.92-61.55,19.43l-97.95,188.83-97.95-188.83c-11.59-22.35-39.19-31.07-61.56-19.43-22.36,11.66-31.11,39.23-19.47,61.62l127.5,245.82-58.87,113.71c-11.65,22.39-2.96,49.97,19.43,61.59,7.34,3.89,15.26,5.48,23.02,5.1,15.77-.66,30.78-9.48,38.62-24.5l208.18-401.72c11.68-22.39,2.98-49.96-19.41-61.62Z"/></svg>